<svg width="180" height="16" viewBox="0 0 180 16" fill="none" xmlns="http://www.w3.org/2000/svg">
<g clip-path="url(#clip0_407_3433)">
<path d="M0.19754 -7.85932e-06C0.45454 -7.84809e-06 0.619566 0.106991 0.692566 0.320991C0.765566 0.533991 0.844565 0.904999 0.929565 1.432C1.01557 1.959 1.14155 2.41899 1.31155 2.81499C2.52055 5.67899 4.91756 7.111 8.50156 7.111L80.9345 7.111C85.4945 7.111 88.4205 9.099 89.7145 13.074C91.0075 9.099 93.7866 7.111 98.0496 7.111L170.823 7.11101C171.861 7.11101 172.647 7.07801 173.176 7.01201C174.661 6.78101 175.944 6.14401 177.025 5.09801C178.107 4.05301 178.754 2.757 178.966 1.209C178.966 1.176 178.977 1.08101 178.998 0.92601C179.019 0.77001 179.04 0.658002 179.061 0.593002C179.082 0.526002 179.115 0.435999 179.158 0.320999C179.202 0.204999 179.28 0.123005 179.391 0.0740051C179.501 0.0240051 179.623 -1.64078e-08 179.756 -1.05942e-08C180.308 1.35345e-08 179.917 3.66701 178.584 5.59001C177.25 7.51201 175.314 8.59601 172.775 8.84001C172.348 8.87301 171.719 8.88901 170.887 8.88901L98.3686 8.889C96.9266 8.889 95.6645 9.107 94.5825 9.543C93.5005 9.98 92.6995 10.543 92.1805 11.235C91.6615 11.926 91.2855 12.507 91.0515 12.976C90.8175 13.445 90.6586 13.918 90.5746 14.396C90.5746 14.495 90.5626 14.639 90.5416 14.828C90.5206 15.017 90.4835 15.169 90.4305 15.285C90.3775 15.4 90.3305 15.516 90.2875 15.63C90.2455 15.746 90.1715 15.836 90.0645 15.902C89.9585 15.967 89.8415 16.001 89.7145 16.001C89.5455 16.001 89.4065 15.977 89.3015 15.927C89.1965 15.877 89.1156 15.787 89.0626 15.655C89.0096 15.524 88.9725 15.388 88.9515 15.248C88.9305 15.109 88.8985 14.923 88.8565 14.692C88.8135 14.461 88.7715 14.248 88.7285 14.05C88.4315 12.832 87.7646 11.733 86.7256 10.753C85.6856 9.774 84.3596 9.186 82.7486 8.988C82.3246 8.922 81.6885 8.889 80.8405 8.889L8.88455 8.889C8.03355 8.889 7.35354 8.86 6.84454 8.803C6.33554 8.746 5.62454 8.526 4.71054 8.143C3.79654 7.76 2.97557 7.202 2.24857 6.469C-0.166434 4.443 -0.220438 -7.87759e-06 0.200562 -7.85919e-06L0.19754 -7.85932e-06Z" fill="#F0F0F0"/>
</g>
<defs>
<clipPath id="clip0_407_3433">
<rect width="16" height="180" fill="white" transform="translate(180) rotate(90)"/>
</clipPath>
</defs>
</svg>
