<svg width="240" height="16" viewBox="0 0 240 16" fill="none" xmlns="http://www.w3.org/2000/svg">
<g clip-path="url(#clip0_407_3427)">
<path d="M0.196632 0.49706C0.445911 0.49706 0.605871 0.604074 0.6765 0.818074C0.747129 1.03107 0.823967 1.40207 0.906021 1.92907C0.989114 2.45607 1.1117 2.91606 1.2758 3.31206C2.44845 6.17606 4.77296 7.60808 8.24833 7.60808L110.692 7.60809C115.113 7.60809 117.952 9.59607 119.207 13.5711C120.46 9.59607 123.156 7.60809 127.289 7.60809L231.102 7.60809C232.108 7.60809 232.871 7.57509 233.384 7.50909C234.824 7.27809 236.068 6.64109 237.117 5.59509C238.166 4.55009 238.793 3.25409 238.999 1.70609C238.999 1.67309 239.009 1.5781 239.03 1.4231C239.051 1.2671 239.07 1.15509 239.091 1.09009C239.112 1.02309 239.143 0.933085 239.186 0.818085C239.228 0.702085 239.304 0.620075 239.411 0.571075C239.518 0.521075 239.635 0.49707 239.765 0.49707C240.3 0.49707 239.921 4.1641 238.628 6.0871C237.334 8.0091 235.457 9.0931 232.994 9.3371C232.58 9.3701 231.97 9.38608 231.163 9.38608L127.598 9.38607C126.2 9.38607 124.975 9.60406 123.926 10.0401C122.877 10.4771 122.1 11.0401 121.597 11.7321C121.093 12.4231 120.728 13.0041 120.502 13.4731C120.275 13.9421 120.121 14.4151 120.04 14.8931C120.04 14.9921 120.028 15.1361 120.007 15.3251C119.987 15.5141 119.951 15.6661 119.899 15.7821C119.848 15.8971 119.802 16.0131 119.761 16.1271C119.721 16.2431 119.648 16.3331 119.545 16.3991C119.442 16.4641 119.329 16.4981 119.206 16.4981C119.041 16.4981 118.907 16.4741 118.805 16.4241C118.702 16.3741 118.624 16.2841 118.573 16.1521C118.522 16.0211 118.486 15.8851 118.465 15.7451C118.444 15.6061 118.414 15.4201 118.373 15.1891C118.331 14.9581 118.29 14.7451 118.249 14.5471C117.961 13.3291 117.314 12.2301 116.306 11.2501C115.297 10.2711 114.011 9.68307 112.449 9.48507C112.038 9.41907 111.421 9.38607 110.598 9.38607L8.61706 9.38607C7.79133 9.38607 7.13282 9.35707 6.63841 9.30007C6.14505 9.24307 5.45536 9.02307 4.56835 8.64007C3.68133 8.25707 2.88573 7.69908 2.18048 6.96608C-0.161703 4.94008 -0.213655 0.49706 0.19454 0.49706L0.196632 0.49706Z" fill="#F0F0F0"/>
</g>
<defs>
<clipPath id="clip0_407_3427">
<rect width="16" height="240" fill="white" transform="translate(240) rotate(90)"/>
</clipPath>
</defs>
</svg>
