<svg width="90" height="16" viewBox="0 0 90 16" fill="none" xmlns="http://www.w3.org/2000/svg">
<g clip-path="url(#clip0_407_3419)">
<path d="M0.123199 0.497066C0.380199 0.497066 0.545225 0.604066 0.618225 0.818066C0.691225 1.03107 0.770225 1.40207 0.855225 1.92907C0.941225 2.45607 1.06721 2.91606 1.23721 3.31206C2.44621 6.17606 4.84322 7.60807 8.42722 7.60807L35.8602 7.60807C40.4202 7.60807 43.3462 9.59607 44.6402 13.5711C45.9332 9.59607 48.7122 7.60807 52.9752 7.60807L80.7482 7.60807C81.7862 7.60807 82.5722 7.57507 83.1012 7.50907C84.5862 7.27807 85.8692 6.64107 86.9502 5.59507C88.0322 4.55007 88.6792 3.25406 88.8912 1.70606C88.8912 1.67306 88.9022 1.57807 88.9232 1.42307C88.9442 1.26707 88.9652 1.15506 88.9862 1.09006C89.0072 1.02306 89.0402 0.933069 89.0832 0.818069C89.1272 0.702069 89.2052 0.620068 89.3162 0.571068C89.4262 0.521068 89.5482 0.49707 89.6812 0.49707C90.2332 0.49707 89.8422 4.16407 88.5092 6.08707C87.1752 8.00907 85.2392 9.09307 82.7002 9.33707C82.2732 9.37007 81.6442 9.38607 80.8122 9.38607L53.2942 9.38607C51.8522 9.38607 50.5902 9.60406 49.5082 10.0401C48.4262 10.4771 47.6252 11.0401 47.1062 11.7321C46.5872 12.4231 46.2112 13.0041 45.9772 13.4731C45.7432 13.9421 45.5842 14.4151 45.5002 14.8931C45.5002 14.9921 45.4882 15.1361 45.4672 15.3251C45.4462 15.5141 45.4092 15.6661 45.3562 15.7821C45.3032 15.8971 45.2562 16.0131 45.2132 16.1271C45.1712 16.2431 45.0972 16.3331 44.9902 16.3991C44.8842 16.4641 44.7672 16.4981 44.6402 16.4981C44.4712 16.4981 44.3322 16.4741 44.2272 16.4241C44.1222 16.3741 44.0412 16.2841 43.9882 16.1521C43.9352 16.0211 43.8982 15.8851 43.8772 15.7451C43.8562 15.6061 43.8242 15.4201 43.7822 15.1891C43.7392 14.9581 43.6972 14.7451 43.6542 14.5471C43.3572 13.3291 42.6902 12.2301 41.6512 11.2501C40.6112 10.2711 39.2852 9.68307 37.6742 9.48507C37.2502 9.41907 36.6142 9.38607 35.7662 9.38607L8.81021 9.38607C7.95921 9.38607 7.2792 9.35707 6.7702 9.30007C6.2612 9.24307 5.5502 9.02306 4.6362 8.64006C3.7222 8.25706 2.90122 7.69907 2.17422 6.96607C-0.240775 4.94007 -0.294779 0.497066 0.126221 0.497066L0.123199 0.497066Z" fill="#F0F0F0"/>
</g>
<defs>
<clipPath id="clip0_407_3419">
<rect width="16" height="90" fill="white" transform="translate(90) rotate(90)"/>
</clipPath>
</defs>
</svg>
