<svg width="60" height="16" viewBox="0 0 60 16" fill="none" xmlns="http://www.w3.org/2000/svg">
<g clip-path="url(#clip0_407_3412)">
<path d="M0.182678 -2.6147e-06C0.416678 -2.60447e-06 0.56566 0.106997 0.63266 0.320997C0.69866 0.533997 0.770656 0.904997 0.847656 1.432C0.925656 1.959 1.04067 2.419 1.19467 2.815C2.29367 5.679 4.47268 7.111 7.73068 7.111L21.7607 7.111C25.9057 7.111 28.5657 9.099 29.7427 13.074C30.9177 9.099 33.4447 7.111 37.3197 7.111L51.6587 7.111C52.6027 7.111 53.3167 7.078 53.7977 7.012C55.1477 6.781 56.3137 6.144 57.2967 5.098C58.2797 4.053 58.8677 2.757 59.0617 1.209C59.0617 1.176 59.0717 1.081 59.0907 0.926001C59.1097 0.770001 59.1287 0.658 59.1487 0.593C59.1677 0.526 59.1977 0.435999 59.2367 0.320999C59.2767 0.204999 59.3477 0.122999 59.4477 0.0739994C59.5477 0.0239994 59.6577 -1.49641e-08 59.7797 -9.63126e-09C60.2817 1.23119e-08 59.9257 3.667 58.7137 5.59C57.5007 7.512 55.7407 8.596 53.4327 8.84C53.0447 8.873 52.4727 8.889 51.7167 8.889L37.6097 8.889C36.2987 8.889 35.1517 9.107 34.1677 9.543C33.1847 9.98 32.4557 10.543 31.9837 11.235C31.5117 11.926 31.1697 12.507 30.9577 12.976C30.7457 13.445 30.5997 13.918 30.5247 14.396C30.5247 14.495 30.5137 14.639 30.4947 14.828C30.4757 15.017 30.4417 15.169 30.3937 15.285C30.3457 15.4 30.3027 15.516 30.2637 15.63C30.2257 15.746 30.1577 15.836 30.0607 15.902C29.9647 15.967 29.8577 16.001 29.7427 16.001C29.5887 16.001 29.4627 15.977 29.3667 15.927C29.2707 15.877 29.1977 15.787 29.1497 15.655C29.1017 15.524 29.0677 15.388 29.0487 15.248C29.0297 15.109 29.0007 14.923 28.9627 14.692C28.9237 14.461 28.8857 14.248 28.8467 14.05C28.5767 12.832 27.9697 11.733 27.0257 10.753C26.0797 9.774 24.8747 9.186 23.4097 8.988C23.0247 8.922 22.4457 8.889 21.6747 8.889L8.07767 8.889C7.30367 8.889 6.68566 8.86 6.22266 8.803C5.76066 8.746 5.11368 8.526 4.28268 8.143C3.45168 7.76 2.70568 7.202 2.04468 6.469C-0.151323 4.443 -0.199322 -2.6314e-06 0.182678 -2.6147e-06Z" fill="#F0F0F0"/>
</g>
<defs>
<clipPath id="clip0_407_3412">
<rect width="16" height="60" fill="white" transform="translate(60) rotate(90)"/>
</clipPath>
</defs>
</svg>
